<svg height="512" viewBox="0 0 64 64" width="512" xmlns="http://www.w3.org/2000/svg"><g id="Flat"><g id="Color_copy" data-name="Color copy"><g><g><path d="m6 13h17a0 0 0 0 1 0 0v38a0 0 0 0 1 0 0h-17a3 3 0 0 1 -3-3v-32a3 3 0 0 1 3-3z" fill="#d0d8da"/><g fill="#93999a"><path d="m17 13v17a14 14 0 0 1 -14 14v4a3 3 0 0 0 3 3h17v-38z"/><path d="m7 26h7v3a1 1 0 0 0 2 0v-12a1 1 0 0 0 -1-1h-8a1 1 0 0 0 -1 1v8a1 1 0 0 0 1 1zm1-8h6v6h-6z"/><circle cx="11" cy="21" r="1"/><circle cx="11" cy="42" r="1"/></g><path d="m23 29h-4a1 1 0 0 0 -1 1v4a1 1 0 0 0 1 1h4a1 1 0 0 0 1-1v-4a1 1 0 0 0 -1-1zm-1 4h-2v-2h2z" fill="#656b76"/><path d="m23 24h-4a1 1 0 0 0 0 2h4a1 1 0 0 0 0-2z" fill="#656b76"/><circle cx="19" cy="38" fill="#656b76" r="1"/><circle cx="15" cy="34" fill="#93999a" r="1"/><circle cx="11" cy="34" fill="#93999a" r="1"/><circle cx="7" cy="29" fill="#93999a" r="1"/><path d="m19 45h-3v-7a1 1 0 0 0 -1-1h-7v-4a1 1 0 0 0 -2 0v13a1 1 0 0 0 1 1h12a1 1 0 0 0 0-2zm-11-6h6v6h-6z" fill="#93999a"/><path d="m23 41h-3a1 1 0 0 0 0 2h3a1 1 0 0 0 0-2z" fill="#656b76"/><path d="m23 20h-3v-3a1 1 0 0 0 -2 0v4a1 1 0 0 0 1 1h4a1 1 0 0 0 0-2z" fill="#656b76"/><path d="m12.5 29a1 1 0 0 0 -1-1h-1a1 1 0 0 0 0 2h1a1 1 0 0 0 1-1z" fill="#93999a"/><path d="m19 45h-3v-7a.99.99 0 0 0 -.9-.98 14.062 14.062 0 0 1 -1.383 1.98h.283v6h-6v-1.936a13.882 13.882 0 0 1 -2 .606v2.33a1 1 0 0 0 1 1h12a1 1 0 0 0 0-2z" fill="#656b76"/><path d="m11 43a1 1 0 0 0 1-1 .989.989 0 0 0 -.533-.869 14.031 14.031 0 0 1 -1.447.969.99.99 0 0 0 .98.9z" fill="#656b76"/></g><g><rect fill="#57b7eb" height="58" rx="4" width="38" x="23" y="3"/><path d="m56 49a22 22 0 0 1 -22-22v-24h-7a4 4 0 0 0 -4 4v50a4 4 0 0 0 4 4h30a4 4 0 0 0 4-4v-8z" fill="#4891d3"/><rect fill="#d0d8da" height="30" rx="2" width="30" x="27" y="11"/><path d="m27 45h30v5h-30z" fill="#f89c8d"/><path d="m29 41h10.029a21.906 21.906 0 0 1 -5.029-14v-16h-5a2 2 0 0 0 -2 2v26a2 2 0 0 0 2 2z" fill="#93999a"/><path d="m57 49h-1a21.894 21.894 0 0 1 -12.642-4h-16.358v5h30z" fill="#f8664f"/><path d="m38 3a4 4 0 0 0 4 4h13a4 4 0 0 1 4 4v24a2 2 0 0 0 2 2v-30a4 4 0 0 0 -4-4z" fill="#aae1f9"/><circle cx="27" cy="7" fill="#656b76" r="1"/><circle cx="31" cy="7" fill="#656b76" r="1"/><path d="m46 55h-8a1 1 0 0 0 0 2h8a1 1 0 0 0 0-2z" fill="#d0d8da"/><g fill="#93999a"><path d="m31 22h6a1 1 0 0 0 1-1v-2h2a1 1 0 0 0 0-2h-2v-2a1 1 0 0 0 -1-1h-6a1 1 0 0 0 -1 1v6a1 1 0 0 0 1 1zm1-6h4v4h-4z"/><path d="m53 14h-6a1 1 0 0 0 -1 1v2h-2a1 1 0 0 0 0 2h2v2a1 1 0 0 0 1 1h6a1 1 0 0 0 1-1v-6a1 1 0 0 0 -1-1zm-1 6h-4v-4h4z"/><circle cx="42" cy="21" r="1"/><circle cx="52" cy="29" r="1"/><circle cx="52" cy="25" r="1"/><circle cx="42" cy="15" r="1"/><circle cx="50" cy="18" r="1"/><circle cx="44" cy="37" r="1"/><circle cx="35" cy="26" r="1"/><path d="m50 36h-2a1 1 0 0 0 0 2h2a1 1 0 0 0 0-2z"/><path d="m52 31a1 1 0 0 0 -1 1v2a1 1 0 0 0 2 0v-2a1 1 0 0 0 -1-1z"/><path d="m48 26a1 1 0 0 0 0-2h-5a1 1 0 0 0 0 2h2v2h-1a1 1 0 0 0 -1 1v3h-2a1 1 0 0 0 0 2h7a1 1 0 0 0 1-1v-4a1 1 0 0 0 -1-1h-1v-2zm-1 6h-2v-2h2z"/></g><path d="m31 28a1 1 0 0 0 1-1v-2a1 1 0 0 0 -2 0v2a1 1 0 0 0 1 1z" fill="#656b76"/><path d="m40 38a1 1 0 0 0 0-2h-2v-5a1 1 0 0 0 -1-1h-6a1 1 0 0 0 -1 1v6a1 1 0 0 0 1 1zm-8-6h4v4h-4z" fill="#93999a"/><path d="m39 23a1 1 0 0 0 -1 1v4a1 1 0 0 0 2 0v-4a1 1 0 0 0 -1-1z" fill="#93999a"/><path d="m30 15v6a1 1 0 0 0 1 1h3v-2h-2v-4h2v-2h-3a1 1 0 0 0 -1 1z" fill="#656b76"/><path d="m32 36v-4h2.591q-.228-.984-.367-2h-3.224a1 1 0 0 0 -1 1v6a1 1 0 0 0 1 1h5.946a22.05 22.05 0 0 1 -1.014-2z" fill="#656b76"/><circle cx="34" cy="34" fill="#656b76" r="1"/><circle cx="34" cy="18" fill="#93999a" r="1"/><path d="m34 17a1 1 0 0 0 0 2z" fill="#656b76"/></g></g></g></g></svg>